<?xml version="1.0" encoding="UTF-8"?>
<svg xmlns="http://www.w3.org/2000/svg" version="1.1" viewBox="0 0 210 50">
  <!-- Generator: Adobe Illustrator 28.7.1, SVG Export Plug-In . SVG Version: 1.2.0 Build 142)  -->
  <g>
    <g id="Layer_1">
      <g>
        <path d="M70.9,28.8c2.4-6.6,3.3-9.3,4.2-12,1.3,3.9,2.6,7.6,4.1,12h-8.3ZM72.5,12l-10.2,26.9h5.2l2.2-6.3h10.6l2.1,6.3h5.3l-9.8-26.9h-5.4Z"/>
        <path d="M98.4,35.6c-2.8,0-4.5-2.3-4.5-6.4s1.9-5.9,4.6-5.9,4.1,2.3,4.1,6.1-1.6,6.1-4.3,6.1M94.1,22.5v-10.5h-4.5v26.9h4.3v-2.5c1.2,1.9,3.4,3,5.6,2.9,4.7,0,7.8-3.7,7.8-9.9s-2.8-9.9-7.3-9.9c-2.3,0-4.5,1.1-5.9,2.9Z"/>
        <path d="M116.7,22.8c1.8,0,3.5,1,4.3,2.7l3.3-2.2c-1.6-2.5-4.5-4-7.5-3.8-4.7,0-7.4,2.8-7.4,5.7s1.9,4.6,4.8,5.5l2,.6c2.9.9,3.5,1.4,3.5,2.7s-1.1,2-3,2c-2.1,0-4-1.2-4.8-3.1l-3.5,2.3c1.8,2.7,4.9,4.4,8.1,4.3,4.7,0,7.7-2.6,7.7-6.1s-1.9-4.6-5.3-5.7l-2-.6c-2.4-.8-3-1.3-3-2.4s.9-1.9,2.8-1.9"/>
        <path d="M133.3,23.5h3.7v-3.5h-3.7v-6.2h-4.4v6.2h-3.1v3.6h3v10.4c-.1,1.4.2,2.8,1.1,4,.8.9,2,1.4,3.9,1.4,1.1,0,2.2-.1,3.3-.4v-3.6c-.6.2-1.2.3-1.8.3-1.4,0-1.9-.7-1.9-2.6v-9.5Z"/>
        <path d="M143.8,20h-4.3v19h4.5v-8.9c-.1-1.5.2-3,1-4.4.9-1.3,2.4-2,4-1.9.6,0,1.1,0,1.6.2v-4.1c-.5-.2-1.1-.3-1.6-.3-2.2-.1-4.3,1.1-5.3,3.2v-2.9Z"/>
        <path d="M163.5,30.9c0,1.1-.3,2.1-.8,3-.9,1.3-2.4,2.1-4,2-2,0-2.9-1-2.9-2.4,0-1.1.6-2,1.6-2.3,1.9-.7,4-1.1,6.1-1.1v.9ZM167.8,26.9c0-3-.4-4.5-1.6-5.6s-3.1-1.8-5.7-1.8c-4.9,0-7.9,2.3-8.2,6.4l4.3.4c.2-2.1,1.3-3.3,3.6-3.3.9,0,1.9.2,2.6.8.6.6.8,1.5.7,2.3v1c-3,.2-6.7.7-8.6,1.6-2.1.8-3.5,2.8-3.5,5.1,0,3.4,2.4,5.6,5.9,5.6,2.4.1,4.7-.9,6.2-2.7.4,1.9,1.8,2.6,4.1,2.6.7,0,1.4,0,2-.3v-2.9c-1.7.3-2-.7-2-2.2v-6.9Z"/>
        <path d="M175.4,29.3c0-4.2,2-6.2,4.6-6.2s3.2.8,3.7,3.4l4-1.4c-.8-3.5-4-5.9-7.6-5.7-5.7,0-9.3,3.8-9.3,10s3.5,10.1,9,10.1,6.8-2.3,7.9-5.5l-4-1.4c-.2,1.8-1.8,3.2-3.7,3.1-2.9,0-4.6-2.2-4.6-6.4h0Z"/>
        <path d="M196.2,23.5h3.7v-3.5h-3.7v-6.2h-4.4v6.2h-3.1v3.6h3v10.4c-.1,1.4.2,2.8,1.1,4,.8.9,2,1.4,3.9,1.4,1.1,0,2.2-.1,3.3-.4v-3.6c-.6.2-1.2.3-1.8.3-1.4,0-1.9-.7-1.9-2.6v-9.5Z"/>
      </g>
    </g>
  </g>
</svg>