<?xml version="1.0" encoding="UTF-8"?>
<svg id="Layer_1" data-name="Layer 1" xmlns="http://www.w3.org/2000/svg" viewBox="0 0 500 500">
  <defs>
    <style>
      .cls-1 {
        fill: #000;
        stroke: #231f20;
        stroke-miterlimit: 10;
      }

      .cls-2 {
        fill: #fff;
        stroke-width: 0px;
      }
    </style>
  </defs>
  <rect class="cls-1" x="28.01" y="28.01" width="443.97" height="443.97" rx="35.12" ry="35.12"/>
  <path class="cls-2" d="M166.47,176.13c.06.07.16.1.28.1h73.96v55.75H87.68V89.75h78.7v86.09c0,.13.03.22.1.28Z"/>
  <path class="cls-2" d="M346.9,287.87h65.61v92.35c0,10.87-4.08,20.26-12.23,28.16-8.15,7.9-18.84,13.87-32.05,17.92-13.21,4.04-27.34,6.07-42.38,6.07-11.5,0-22.63-1.23-33.38-3.7-10.75-2.46-20.36-6.04-28.82-10.71v-30.15c5.69,3.67,12.96,6.73,21.81,9.2,8.85,2.46,17.51,3.7,25.98,3.7,6.7,0,12.71-.85,18.02-2.56,5.31-1.71,9.54-4.52,12.71-8.44,3.16-3.92,4.74-8.91,4.74-14.98v-35.08c0-4.3-1.71-7.59-5.12-9.86-3.41-2.28-7.96-3.41-13.65-3.41s-10.69,1.11-14.22,3.32c-3.54,2.21-5.31,5.34-5.31,9.39,0,4.3,1.8,7.65,5.4,10.05,3.6,2.4,8.31,3.6,14.13,3.6,10.11,0,16.37-3.67,18.77-11l-11.38,44.56c-4.81,2.78-9.58,4.58-14.32,5.4-4.74.82-10.46,1.23-17.16,1.23-10.5,0-20.23-2.18-29.2-6.54-8.98-4.36-16.19-10.62-21.62-18.77-5.44-8.15-8.15-17.66-8.15-28.54s2.84-20.42,8.53-28.63c5.69-8.22,13.28-14.51,22.76-18.87,9.48-4.36,19.79-6.54,30.91-6.54,3.16,0,6.48.22,9.96.66,3.47.44,6.86,1.17,10.14,2.18,4.17,1.27,7.9,2.94,11.19,5.03,3.29,2.09,5.94,4.58,7.96,7.49.12.38.22.51.29.38.06-.12.1-.31.1-.57v-12.33Z"/>
  <path class="cls-2" d="M123.92,402.35c-12.36-4.57-22.13-11.47-29.31-20.72-7.18-9.25-10.77-20.69-10.77-34.33,0-8.64,1.64-16.74,4.93-24.29,3.77-8.15,9.43-15.09,16.98-20.82,7.55-5.72,16.49-10.01,26.84-12.87,10.35-2.86,21.48-4.29,33.41-4.29,15.58,0,29.58,2.34,42,7.03,12.42,4.69,22.21,11.72,29.4,21.09,7.18,9.38,10.77,20.76,10.77,34.15,0,7.3-1.1,14-3.29,20.08-3.29,9.13-8.71,16.83-16.25,23.1-7.55,6.27-16.68,10.96-27.39,14.06-10.71,3.1-22.46,4.66-35.24,4.66-15.7,0-29.73-2.28-42.09-6.85ZM181.89,356.7c3.41-2.74,5.11-5.99,5.11-9.77s-1.71-6.82-5.11-9.5c-3.41-2.68-8.65-4.02-15.7-4.02-4.99,0-9.07.67-12.23,2.01-3.17,1.34-5.45,3.04-6.85,5.11-1.4,2.07-2.1,4.26-2.1,6.57,0,2.44.73,4.69,2.19,6.76,1.46,2.07,3.77,3.74,6.94,5.02,3.16,1.28,7.18,1.92,12.05,1.92,7.06,0,12.29-1.37,15.7-4.11Z"/>
  <path class="cls-2" d="M262.69,135.84c7.24-9.31,17.07-16.31,29.49-21,12.42-4.68,26.35-7.03,41.81-7.03h2.74c14.24,0,27.42,2.34,39.53,7.03,12.11,4.69,21.79,11.72,29.03,21.09,7.24,9.38,10.87,20.76,10.87,34.15s-3.59,24.74-10.77,34.05c-7.18,9.31-16.98,16.28-29.4,20.91-12.42,4.62-26.42,6.94-42,6.94s-29.73-2.28-42.09-6.85c-12.36-4.57-22.12-11.5-29.31-20.82-7.18-9.31-10.77-20.78-10.77-34.42s3.62-24.74,10.86-34.05ZM349.15,159.76c-3.9-2.37-8.64-3.56-14.24-3.56h-.91c-4.63,0-8.49.61-11.59,1.83-3.1,1.22-5.45,2.86-7.03,4.93-1.58,2.07-2.37,4.38-2.37,6.94s.73,4.69,2.19,6.76c1.46,2.07,3.77,3.74,6.94,5.02,3.16,1.28,7.18,1.92,12.05,1.92s8.7-.67,11.87-2.01c3.16-1.34,5.45-3.04,6.85-5.11,1.4-2.07,2.1-4.32,2.1-6.76,0-4.26-1.95-7.58-5.84-9.95Z"/>
</svg>